# xmcd CD database file
#
# Track frame offsets:
#	150
#	12485
#	25297
#	38308
#	49733
#	66992
#	78666
#	99795
#	105350
#	115679
#	126191
#	136539
#	148115
#	162108
#	173232
#	186096
#	197227
#	209926
#	236929
#	249472
#
# Disc length: 3443 seconds
#
# Revision: 6
# Processed by: cddbd v1.5.2PL0 Copyright (c) Steve Scherf et al.
# Submitted via: CDex 1.95
#
DISCID=150d7114
DTITLE=Various Artist - Golden Country Hits Vol21 Cd2
DYEAR=1999
DGENRE=Oldies
TTITLE0=Danny Davis and The Nashville Brass - Ruby Don't Take Your Love
TTITLE1=Barbara Mandrell - The Ten Commandments Of Love
TTITLE2=Mel Tillis - In The Middle Of The Night
TTITLE3=Hoyt Axton - Double Double Dare
TTITLE4=John Braack and Jeff Turner - In The Darkest Night
TTITLE5=Stonewall Jackson - Ol' Blue Talk
TTITLE6=Tanya Tucker - Texas When I Die
TTITLE7=George Jones - Liberty
TTITLE8=Frankie Laine - I Believe
TTITLE9=Don Williams - Turn Off The Lights
TTITLE10=Carl Perkins - Jailhouse Rock
TTITLE11=Conway Twitty - You Made Me What I am Today
TTITLE12=Barbara Fairchild - Love Doesn't Speak
TTITLE13=Faron Young - Crying Time
TTITLE14=Freddy Fender - Mean Woman Blues
TTITLE15=Gene Watson - You Out Doin'
TTITLE16=Glen Yarborough - Old Maid's Song
TTITLE17=Jimmy Dean - Sleeping Beauty
TTITLE18=Johnny Paycheck - Heavens Almost As Big As Texas
TTITLE19=Eddie Raven - Thank God For Kids
EXTD=YEAR: 1999
EXTT0=
EXTT1=
EXTT2=
EXTT3=
EXTT4=
EXTT5=
EXTT6=
EXTT7=
EXTT8=
EXTT9=
EXTT10=
EXTT11=
EXTT12=
EXTT13=
EXTT14=
EXTT15=
EXTT16=
EXTT17=
EXTT18=
EXTT19=
PLAYORDER=
